<svg xmlns="http://www.w3.org/2000/svg" width="98" height="85.748" viewBox="0 0 98 85.748">
  <g id="credit" transform="translate(0 -32.004)">
    <g id="Group_1634" data-name="Group 1634" transform="translate(0 50.377)">
      <g id="Group_1633" data-name="Group 1633">
        <path id="Path_3099" data-name="Path 3099" d="M94.937,164.746a3.064,3.064,0,0,0-3.062,3.063v21.438H6.125V152.5H39.812a3.062,3.062,0,1,0,0-6.125H6.125v-12.25H39.812a3.063,3.063,0,0,0,0-6.125H6.125A6.127,6.127,0,0,0,0,134.121v55.125a6.127,6.127,0,0,0,6.125,6.125h85.75A6.127,6.127,0,0,0,98,189.246V167.808A3.064,3.064,0,0,0,94.937,164.746Z" transform="translate(0 -127.996)" fill="#f4f4f4"/>
      </g>
    </g>
    <g id="Group_1636" data-name="Group 1636" transform="translate(12.25 87.127)">
      <g id="Group_1635" data-name="Group 1635">
        <path id="Path_3100" data-name="Path 3100" d="M79.313,320H67.063a3.063,3.063,0,0,0,0,6.125h12.25a3.063,3.063,0,0,0,0-6.125Z" transform="translate(-64 -319.996)" fill="#f4f4f4"/>
      </g>
    </g>
    <g id="Group_1638" data-name="Group 1638" transform="translate(49 32.004)">
      <g id="Group_1637" data-name="Group 1637" transform="translate(0 0)">
        <path id="Path_3101" data-name="Path 3101" d="M303.144,41.435l-21.437-9.187a3.127,3.127,0,0,0-2.419,0L257.85,41.435A3.07,3.07,0,0,0,256,44.252V56.5c0,16.85,6.229,26.7,22.975,36.346a3.079,3.079,0,0,0,3.05,0C298.771,83.226,305,73.377,305,56.5V44.252A3.066,3.066,0,0,0,303.144,41.435ZM298.875,56.5c0,14.143-4.679,21.927-18.375,30.135-13.7-8.226-18.375-16.011-18.375-30.135V46.274L280.5,38.4l18.375,7.877Z" transform="translate(-256 -32.004)" fill="#f4f4f4"/>
      </g>
    </g>
    <g id="Group_1640" data-name="Group 1640" transform="translate(61.252 50.381)">
      <g id="Group_1639" data-name="Group 1639">
        <path id="Path_3102" data-name="Path 3102" d="M343.364,128.68a3.083,3.083,0,0,0-4.306.478L329.429,141.2l-3.81-5.7a3.061,3.061,0,1,0-5.1,3.393l6.125,9.187a3.087,3.087,0,0,0,2.419,1.366h.129a3.063,3.063,0,0,0,2.395-1.151l12.25-15.312A3.065,3.065,0,0,0,343.364,128.68Z" transform="translate(-320.011 -128.016)" fill="#f4f4f4"/>
      </g>
    </g>
  </g>
</svg>
