<svg id="XMLID_2_" xmlns="http://www.w3.org/2000/svg" width="90.95" height="67.634" viewBox="0 0 90.95 67.634">
  <path id="XMLID_4_" d="M52.03,125.671H4.134a4.134,4.134,0,1,1,0-8.268h47.9l-5.345-5.345a4.134,4.134,0,0,1,5.846-5.846l12.4,12.4c.1.1.186.2.272.3.021.026.039.053.059.079.063.08.125.161.182.246.017.025.03.051.046.076.057.089.112.178.163.272.01.018.018.038.027.056.052.1.1.2.146.31.006.013.009.027.015.04.045.111.087.224.122.34,0,.015.007.03.011.045.033.114.064.229.087.346.007.035.01.071.016.106.017.1.034.2.044.295a4.074,4.074,0,0,1,0,.825c-.01.1-.027.2-.044.3-.006.034-.009.069-.016.1-.024.119-.054.235-.088.35,0,.013-.007.028-.011.041-.036.117-.077.23-.123.343,0,.012-.009.025-.014.037-.044.107-.095.21-.147.311-.009.018-.017.037-.026.055-.051.094-.107.184-.164.274-.015.024-.029.05-.045.074-.057.085-.12.166-.182.247-.02.026-.038.053-.059.079-.086.1-.177.2-.272.3l-12.4,12.4a4.134,4.134,0,1,1-5.846-5.846Z" transform="translate(24.805 -87.72)" fill="#e9e9e8"/>
  <path id="XMLID_5_" d="M136.662,42.3a33.792,33.792,0,0,1,28.085,14.975,4.134,4.134,0,0,1-6.863,4.612A25.549,25.549,0,1,0,157.85,90.4a4.134,4.134,0,0,1,6.851,4.629A33.819,33.819,0,1,1,136.662,42.3Z" transform="translate(-102.845 -42.299)" fill="#e9e9e8"/>
</svg>
