<svg xmlns="http://www.w3.org/2000/svg" width="39.448" height="39.625" viewBox="0 0 39.448 39.625">
  <path id="whatsapp_1_" data-name="whatsapp (1)" d="M19.724,0A19.817,19.817,0,0,0,2.792,29.959L0,39.625l9.623-2.8a19.526,19.526,0,0,0,10.1,2.8A19.813,19.813,0,0,0,19.724,0ZM32.055,28.184l-.918.922c-1.3,1.3-4.284,1.2-6.2.829C18.555,28.7,11.118,21.455,9.683,15.184c-.71-3.107-.318-5.807.708-6.838l.918-.922a1.3,1.3,0,0,1,1.835,0l3.671,3.688a1.308,1.308,0,0,1,0,1.842l-.917.923a2.621,2.621,0,0,0,0,3.688l6.062,6.009a2.586,2.586,0,0,0,3.671,0l.918-.921a1.352,1.352,0,0,1,1.836,0l3.67,3.687A1.307,1.307,0,0,1,32.055,28.184Zm0,0" fill="#585858"/>
</svg>
