<svg xmlns="http://www.w3.org/2000/svg" width="44" height="42.166" viewBox="0 0 44 42.166">
  <path id="icon-line" d="M22,.5C9.873.5,0,8.563,0,18.472,0,27.347,7.828,34.783,18.4,36.2c.717.152,1.692.477,1.94,1.089a4.536,4.536,0,0,1,.07,1.993l-.3,1.881c-.083.556-.44,2.187,1.923,1.19s12.679-7.524,17.3-12.868C42.489,26,44,22.429,44,18.472,44,8.563,34.127.5,22,.5ZM13.389,24.365H9.014A1.166,1.166,0,0,1,7.859,23.2V14.4a1.155,1.155,0,1,1,2.31,0v7.64h3.219a1.161,1.161,0,0,1,0,2.323ZM17.91,23.2a1.153,1.153,0,1,1-2.306,0V14.4a1.153,1.153,0,1,1,2.306,0Zm10.525,0a1.161,1.161,0,0,1-.792,1.1,1.184,1.184,0,0,1-.365.057,1.132,1.132,0,0,1-.935-.462l-4.479-6.12V23.2a1.152,1.152,0,1,1-2.3,0V14.4a1.156,1.156,0,0,1,.788-1.1,1.067,1.067,0,0,1,.356-.06,1.184,1.184,0,0,1,.907.469l4.514,6.144V14.4a1.155,1.155,0,1,1,2.31,0ZM35.5,17.64a1.163,1.163,0,0,1,0,2.327H32.285v2.075H35.5a1.161,1.161,0,0,1,0,2.323H31.128a1.161,1.161,0,0,1-1.15-1.161V14.4a1.162,1.162,0,0,1,1.155-1.162h4.374a1.162,1.162,0,0,1-.005,2.325H32.285V17.64Z" transform="translate(0 -0.5)" fill="#585858"/>
</svg>
