<svg xmlns="http://www.w3.org/2000/svg" width="42.879" height="36.374" viewBox="0 0 42.879 36.374">
  <g id="icon-group_name" data-name="icon-group name" transform="translate(0 -38.84)">
    <g id="Group_1172" data-name="Group 1172" transform="translate(33.373 58.477)">
      <g id="Group_1171" data-name="Group 1171">
        <path id="Path_2968" data-name="Path 2968" d="M401.81,273.32h-3.316a8.626,8.626,0,0,1,.523,2.965v12.533a3.7,3.7,0,0,1-.213,1.238h5.482A3.718,3.718,0,0,0,408,286.342V279.51A6.2,6.2,0,0,0,401.81,273.32Z" transform="translate(-398.494 -273.32)" fill="#e9e9e9"/>
      </g>
    </g>
    <g id="Group_1174" data-name="Group 1174" transform="translate(0 58.478)">
      <g id="Group_1173" data-name="Group 1173" transform="translate(0 0)">
        <path id="Path_2969" data-name="Path 2969" d="M8.983,276.286a8.626,8.626,0,0,1,.523-2.965H6.19A6.2,6.2,0,0,0,0,279.511v6.832a3.718,3.718,0,0,0,3.714,3.714H9.2a3.7,3.7,0,0,1-.213-1.238Z" transform="translate(0 -273.321)" fill="#e9e9e9"/>
      </g>
    </g>
    <g id="Group_1176" data-name="Group 1176" transform="translate(11.459 55.253)">
      <g id="Group_1175" data-name="Group 1175">
        <path id="Path_2970" data-name="Path 2970" d="M150.6,234.815h-7.581a6.2,6.2,0,0,0-6.19,6.19v12.533a1.238,1.238,0,0,0,1.238,1.238h17.485a1.238,1.238,0,0,0,1.238-1.238V241A6.2,6.2,0,0,0,150.6,234.815Z" transform="translate(-136.829 -234.815)" fill="#e9e9e9"/>
      </g>
    </g>
    <g id="Group_1178" data-name="Group 1178" transform="translate(13.996 38.84)">
      <g id="Group_1177" data-name="Group 1177" transform="translate(0 0)">
        <path id="Path_2971" data-name="Path 2971" d="M174.558,38.84A7.443,7.443,0,1,0,182,46.284,7.453,7.453,0,0,0,174.558,38.84Z" transform="translate(-167.114 -38.84)" fill="#e9e9e9"/>
      </g>
    </g>
    <g id="Group_1180" data-name="Group 1180" transform="translate(2.801 45.779)">
      <g id="Group_1179" data-name="Group 1179" transform="translate(0 0)">
        <path id="Path_2972" data-name="Path 2972" d="M39.01,121.689a5.564,5.564,0,1,0,5.567,5.567A5.573,5.573,0,0,0,39.01,121.689Z" transform="translate(-33.443 -121.689)" fill="#e9e9e9"/>
      </g>
    </g>
    <g id="Group_1182" data-name="Group 1182" transform="translate(28.944 45.779)">
      <g id="Group_1181" data-name="Group 1181" transform="translate(0 0)">
        <path id="Path_2973" data-name="Path 2973" d="M351.174,121.689a5.567,5.567,0,1,0,5.567,5.567A5.573,5.573,0,0,0,351.174,121.689Z" transform="translate(-345.607 -121.689)" fill="#e9e9e9"/>
      </g>
    </g>
  </g>
</svg>
