<svg xmlns="http://www.w3.org/2000/svg" width="37.468" height="44" viewBox="0 0 37.468 44">
  <path id="Path_2992" data-name="Path 2992" d="M37.425,11.937V11.9c-.019-.423-.032-.87-.04-1.367a4.663,4.663,0,0,0-4.391-4.568A18.1,18.1,0,0,1,20.677.776L20.648.749a2.816,2.816,0,0,0-3.827,0l-.029.027A18.1,18.1,0,0,1,4.477,5.968,4.663,4.663,0,0,0,.086,10.536c-.007.494-.02.941-.04,1.367l0,.079c-.1,5.159-.221,11.579,1.927,17.406a22.157,22.157,0,0,0,5.316,8.28,27.807,27.807,0,0,0,10.4,6.153,3.222,3.222,0,0,0,.426.116,3.149,3.149,0,0,0,1.238,0,3.232,3.232,0,0,0,.428-.117,27.826,27.826,0,0,0,10.391-6.156,22.188,22.188,0,0,0,5.316-8.282C37.645,23.538,37.523,17.106,37.425,11.937ZM18.734,32.965A10.965,10.965,0,1,1,29.7,22,10.978,10.978,0,0,1,18.734,32.965Zm0,0" transform="translate(0 0.001)" fill="#585858"/>
</svg>
