<svg id="list" xmlns="http://www.w3.org/2000/svg" width="47.231" height="47.231" viewBox="0 0 47.231 47.231">
  <g id="Group_1890" data-name="Group 1890">
    <g id="Group_1889" data-name="Group 1889">
      <path id="Path_3110" data-name="Path 3110" d="M41.327,0H5.9A5.911,5.911,0,0,0,0,5.9V41.327a5.911,5.911,0,0,0,5.9,5.9H41.327a5.911,5.911,0,0,0,5.9-5.9V5.9A5.911,5.911,0,0,0,41.327,0Zm1.968,41.327a1.97,1.97,0,0,1-1.968,1.968H5.9a1.97,1.97,0,0,1-1.968-1.968V5.9A1.971,1.971,0,0,1,5.9,3.936H41.327A1.971,1.971,0,0,1,43.295,5.9Z" fill="#585858"/>
    </g>
  </g>
  <g id="Group_1892" data-name="Group 1892" transform="translate(9.84 9.84)">
    <g id="Group_1891" data-name="Group 1891">
      <path id="Path_3111" data-name="Path 3111" d="M110.445,107.887a2.032,2.032,0,0,0-.413-.649l-.3-.236a1.492,1.492,0,0,0-.354-.177,1.25,1.25,0,0,0-.354-.118,1.881,1.881,0,0,0-1.141.118,2.273,2.273,0,0,0-.649.413,2.032,2.032,0,0,0-.413.649,1.855,1.855,0,0,0,0,1.5,2.032,2.032,0,0,0,.413.649,2.069,2.069,0,0,0,1.4.571,2.949,2.949,0,0,0,.394-.039,1.25,1.25,0,0,0,.354-.118,1.492,1.492,0,0,0,.354-.177l.3-.236a2.069,2.069,0,0,0,.571-1.4A1.964,1.964,0,0,0,110.445,107.887Z" transform="translate(-106.667 -106.666)" fill="#585858"/>
    </g>
  </g>
  <g id="Group_1894" data-name="Group 1894" transform="translate(17.711 9.84)">
    <g id="Group_1893" data-name="Group 1893">
      <path id="Path_3112" data-name="Path 3112" d="M209.711,106.667H193.968a1.968,1.968,0,1,0,0,3.936h15.744a1.968,1.968,0,0,0,0-3.936Z" transform="translate(-192 -106.667)" fill="#585858"/>
    </g>
  </g>
  <g id="Group_1896" data-name="Group 1896" transform="translate(9.84 21.657)">
    <g id="Group_1895" data-name="Group 1895">
      <path id="Path_3113" data-name="Path 3113" d="M110.564,236.338a1.25,1.25,0,0,0-.118-.354,1.493,1.493,0,0,0-.177-.354l-.236-.3a2.272,2.272,0,0,0-.649-.413,1.968,1.968,0,0,0-1.5,0,2.272,2.272,0,0,0-.649.413l-.236.3a1.493,1.493,0,0,0-.177.354,1.25,1.25,0,0,0-.118.354,2.964,2.964,0,0,0-.039.394,1.968,1.968,0,1,0,3.936,0A3,3,0,0,0,110.564,236.338Z" transform="translate(-106.667 -234.773)" fill="#585858"/>
    </g>
  </g>
  <g id="Group_1898" data-name="Group 1898" transform="translate(17.711 21.647)">
    <g id="Group_1897" data-name="Group 1897">
      <path id="Path_3114" data-name="Path 3114" d="M209.711,234.667H193.968a1.968,1.968,0,0,0,0,3.936h15.744a1.968,1.968,0,0,0,0-3.936Z" transform="translate(-192 -234.667)" fill="#585858"/>
    </g>
  </g>
  <g id="Group_1900" data-name="Group 1900" transform="translate(9.84 33.47)">
    <g id="Group_1899" data-name="Group 1899">
      <path id="Path_3115" data-name="Path 3115" d="M110.445,364.032a1.906,1.906,0,0,0-2.558-1.063,1.774,1.774,0,0,0-1.063,1.063,1.966,1.966,0,1,0,3.779.748A1.652,1.652,0,0,0,110.445,364.032Z" transform="translate(-106.667 -362.827)" fill="#585858"/>
    </g>
  </g>
  <g id="Group_1902" data-name="Group 1902" transform="translate(17.711 33.455)">
    <g id="Group_1901" data-name="Group 1901">
      <path id="Path_3116" data-name="Path 3116" d="M209.711,362.667H193.968a1.968,1.968,0,1,0,0,3.936h15.744a1.968,1.968,0,0,0,0-3.936Z" transform="translate(-192 -362.667)" fill="#585858"/>
    </g>
  </g>
</svg>
